<svg t="1604630856668" class="icon" viewBox="0 0 1682 1024" version="1.1" xmlns="http://www.w3.org/2000/svg" p-id="11443" width="200" height="200"><path d="M1391.025961 632.262417c-1.435025 26.000713-269.249662 383.151754-601.421534 383.151754S188.061281 788.096435 188.061281 630.389587s269.273984-385.997482 601.445857-385.997482 603.075461 361.918244 601.518823 387.870312z" fill="#A5CDD3" p-id="11444"></path><path d="M1298.065509 625.671029s155.663761 121.612313 244.878554 169.211373a68.297475 68.297475 0 0 0 84.666493-16.344695c64.065367-77.199496 78.610199-166.292677 6.51842-279.708321a67.178642 67.178642 0 0 0-82.574761-25.903422c-92.352391 38.697038-253.488706 152.745065-253.488706 152.745065z" fill="#B2CED1" p-id="11445"></path><path d="M119.788129 367.90157m-68.370443 0a68.370443 68.370443 0 1 0 136.740885 0 68.370443 68.370443 0 1 0-136.740885 0Z" fill="#B2CED1" p-id="11446"></path><path d="M301.866084 61.000736m-52.390585 0a52.390585 52.390585 0 1 0 104.781169 0 52.390585 52.390585 0 1 0-104.781169 0Z" fill="#B2CED1" p-id="11447"></path><path d="M135.135602 657.97126c4.475333 35.121636 56.671338 57.425334 26.487162 61.268283s-58.37391-21.525379-62.751953-56.647016 16.369017-66.716515 46.577516-70.535141-14.788057 30.792238-10.312725 65.913874z" fill="#F7C6C6" p-id="11448"></path><path d="M746.748248 1023.975678c-153.693641 0-306.463029-47.915251-430.215719-134.916701-110.91043-78.002138-179.791644-177.116173-179.791644-258.66939s68.881214-180.886155 179.791644-259.131517c123.777012-87.341963 276.570723-135.451794 430.215719-135.451795 96.852046 0 197.011947 30.159854 297.633976 89.603953 94.857604 56.063276 169.770789 126.160614 215.861856 175.121731 54.141802 57.449657 97.289851 116.747821 96.487209 132.265552-0.705351 11.990974-27.289803 48.304411-49.836726 75.740148a1057.467709 1057.467709 0 0 1-129.88195 131.584523c-98.481651 83.863851-253.075224 183.853495-430.264365 183.853496z m0-771.022066c-150.142562 0-299.409515 46.990998-420.340799 132.314196-106.410774 75.083442-172.397615 168.99247-172.397616 245.121779s66.084131 169.795112 172.519228 244.635329c120.858317 85.128619 270.149593 131.827748 420.3408 131.827748 170.524786 0 320.326833-96.316952 415.914111-177.091851 110.083466-92.984775 172.689485-184.072397 176.848626-197.863233-3.405145-13.571934-64.649106-105.121684-176.751336-200.441415-95.879148-81.431605-245.802808-178.502553-416.133014-178.502553z" fill="#323333" p-id="11449"></path><path d="M1532.339469 811.494644a76.956272 76.956272 0 0 1-36.264791-9.047956c-88.849956-47.355835-239.746514-165.027909-246.119-170.014014l-9.096601-7.102159 9.412793-6.640033c6.61571-4.694235 162.9605-115.045248 255.118311-153.644996a75.521247 75.521247 0 0 1 93.106387 29.186955c68.102895 107.018836 65.670649 201.87644-7.126482 289.753498a76.615757 76.615757 0 0 1-59.030617 27.508705z m-262.682596-185.458778c34.683832 26.754709 159.287808 121.223154 234.444217 161.28225a59.881903 59.881903 0 0 0 74.037577-14.252963c68.516377-82.526116 70.364884-168.311442 6.03197-269.614499a58.37391 58.37391 0 0 0-72.043134-22.595567c-77.783236 32.519133-206.570675 120.2989-242.446308 145.180779zM145.351037 726.536282c-38.599748 0-71.79991-26.560129-76.4455-63.092468-5.059072-39.864516 25.78181-76.761692 68.759602-82.234247 5.326619-0.681029 16.441985-2.091732 21.160542 5.813069s-1.070188 16.247405-9.169568 27.605995-19.45797 27.216836-17.658108 40.78877 16.514952 26.000713 27.314125 35.072991 18.436427 15.469086 15.785279 24.322463-13.693546 10.264079-19.020166 10.945108a84.690815 84.690815 0 0 1-10.726206 0.778319z m-5.083395-128.373958h-0.437804c-33.613643 4.280753-57.790171 32.567777-53.9229 63.068146s34.391962 51.831168 68.102895 47.574737h0.413482c-1.921475-1.726895-4.134819-3.599724-6.056293-5.205007-13.061162-10.872141-30.840883-25.8791-33.273129-46.0181s10.872141-39.11052 20.698416-52.901356c1.337735-2.018764 3.040308-4.378043 4.475333-6.51842z" fill="#323333" p-id="11450"></path><path d="M431.796679 510.139332m-54.263414 0a54.263414 54.263414 0 1 0 108.526829 0 54.263414 54.263414 0 1 0-108.526829 0Z" fill="#FFFFFF" p-id="11451"></path><path d="M397.502007 572.964253a62.849243 62.849243 0 1 1 62.970856-62.824921 62.897888 62.897888 0 0 1-62.970856 62.824921z m0-108.526829a45.701907 45.701907 0 1 0 45.701907 45.701908 45.750552 45.750552 0 0 0-45.701907-45.701908zM76.931949 444.833519a76.956272 76.956272 0 1 1 77.077884-76.931949 77.029239 77.029239 0 0 1-77.077884 76.931949z m0-136.740885a59.808936 59.808936 0 1 0 59.808936 59.808936 59.881903 59.881903 0 0 0-59.808936-59.881903zM259.009905 121.952828a60.976414 60.976414 0 1 1 60.976414-60.976414 61.049381 61.049381 0 0 1-60.976414 60.976414z m0-104.805492a43.780433 43.780433 0 1 0 43.780433 43.780433 43.780433 43.780433 0 0 0-43.780433-43.780433z" fill="#323333" p-id="11452"></path><path d="M785.323674 828.812237a8.561507 8.561507 0 0 1-4.864493-15.566376c47.696349-33.832546 70.048692-65.159877 66.376001-93.106387-5.277974-40.302321-63.822142-62.557374-64.405881-62.776276l-14.131351-5.253652 11.74775-9.461438c52.05007-41.883281 75.399634-78.975036 69.659533-110.229401-7.783188-41.518444-66.303033-60.611577-66.886773-60.806156a8.573668 8.573668 0 0 1 5.180685-16.344695c2.797083 0.899931 68.832569 22.303698 78.537232 73.940286 6.664355 35.510795-15.201539 75.132087-65.038265 117.915299 20.309256 10.118144 57.425334 33.492031 62.338471 70.729722 4.572623 34.756799-20.138999 71.556685-73.478159 109.451082a8.439895 8.439895 0 0 1-5.03475 1.507992zM1027.45379 722.255528a8.561507 8.561507 0 0 1-4.694236-15.736633c38.599748-25.173749 57.401012-50.201563 55.941664-74.353768-2.432246-38.259234-54.482316-64.089689-54.993088-64.357236a8.566371 8.566371 0 1 1 7.515641-15.396119c2.432246 1.216123 61.584475 30.597658 64.576139 78.683166 1.921475 30.792238-19.45797 61.000736-63.651885 89.77421a8.488539 8.488539 0 0 1-4.694235 1.38638z" fill="#FFFFFF" p-id="11453"></path><path d="M746.748248 833.092991a8.585829 8.585829 0 0 1-4.864492-15.566376c47.720672-33.808223 70.048692-65.135555 66.400323-93.106387-5.277974-40.302321-63.822142-62.557374-64.430204-62.776277l-14.107028-5.253651 11.723427-9.461438c52.05007-41.883281 75.399634-78.975036 69.659533-110.205079-7.758866-41.542766-66.278711-60.635899-66.886772-60.806156a8.561507 8.561507 0 0 1 5.180684-16.320373c2.821406 0.875609 68.832569 22.303698 78.537232 73.915964 6.664355 35.510795-15.201539 75.132087-65.038265 117.915299 20.309256 10.118144 57.425334 33.492031 62.338472 70.729722 4.596945 34.781122-20.138999 71.581008-73.453838 109.451081a8.512862 8.512862 0 0 1-5.059072 1.483671zM988.878364 726.536282a8.561507 8.561507 0 0 1-4.694235-15.736634c38.599748-25.173749 57.425334-50.17724 55.941664-74.353768-2.432246-38.234911-54.457994-64.089689-54.993088-64.332914a8.585829 8.585829 0 0 1 7.515641-15.420441c2.432246 1.240446 61.608798 30.597658 64.576138 78.683167 1.921475 30.792238-19.45797 61.000736-63.651885 89.774209a8.439895 8.439895 0 0 1-4.694235 1.386381z" fill="#323333" p-id="11454"></path></svg>